<svg width="512" height="512" viewBox="0 0 512 512" fill="none" xmlns="http://www.w3.org/2000/svg" xmlns:xlink="http://www.w3.org/1999/xlink" class=""><rect id="«r9»" width="512" height="512" x="0" y="0" rx="9999999" fill="url(#«ra»)" stroke="#FFFFFF" stroke-width="0" stroke-opacity="100%" paint-order="stroke"></rect><clipPath id="clip"><use xlink:href="#«r9»"></use></clipPath><defs><radialGradient id="«ra»" cx="50%" cy="50%" r="100%" fx="50%" fy="50%" gradientUnits="objectBoundingBox"><stop stop-color="#FF3E00"></stop><stop offset="1" stop-color="#FFBBA1"></stop></radialGradient><radialGradient id="«rb»" cx="0" cy="0" r="1" gradientUnits="userSpaceOnUse" gradientTransform="translate(256) rotate(90) scale(512)"><stop stop-color="white"></stop><stop offset="1" stop-color="white" stop-opacity="0"></stop></radialGradient></defs><svg xmlns="http://www.w3.org/2000/svg" fill="none" viewBox="0 0 16 16" width="352" height="352" x="80" y="80" style="color: rgb(255, 255, 255);" alignment-baseline="middle"><g clip-path="url(#brand-gnu_svg__a)"><path fill="currentColor" d="M3.403 9.297a.414.414 0 0 0-.345.23c-.077.142-.258.165-.343.136-.14-.047-.32-.08-.495.047-.175.126-.363.03-.33-.2.033-.232.115-.438.332-.565.474-.278.145-.472.405-.752.261-.28.203-.365.195-.745-.882-.136-1.382-.395-1.94-1.106C.324 5.631.107 5.045.05 4.154c-.058-.892-.008-1.47.37-2.21.377-.74.775-1.097 1.464-1.466C2.574.108 3.25.02 3.873.03c.624.01 1.04.057 1.393.262.352.205.675.464.88.466a.685.685 0 0 0 .446-.132c.027.692-.583.752-1.129.766-.545.015-.88-.215-1.383-.13-.503.086-1.326.32-1.727 1.03-.4.712-.414.964-.38 1.56.033.598.536 1.043.82 1.048.285.005.348-.08.597-.245.249-.165 1.52-1.77 1.953-2.13.433-.36.861-.471 1.323-.477.462-.006.58.01.953.166.372.156.601.442.901.618.154-.093.25-.23.39-.335.504-.376.766-.477 1.364-.417.345.034.779.234 1.037.464.462.409.842.978 1.15 1.41.24.337.522.74.925.866.44.137.77-.443.819-.765.027-.183.063-.343.063-.544 0-.2-.02-.445-.076-.654a2.355 2.355 0 0 0-.26-.59c-.171-.281-.452-.576-.743-.727-.164-.085-.55-.24-.792-.245-.298-.006-.525.095-.8.115-.333.023-.928.1-1.189-.163-.166-.167-.187-.279-.215-.496a.503.503 0 0 0 .267.11c.209.018.404-.156.572-.257.14-.083.335-.23.518-.306.467-.192 1.042-.186 1.536-.135.396.041.91.221 1.257.422.349.2.685.54.931.86.31.403.48.748.592 1.25.143.642.183 1.605.01 2.237-.137.498-.591 1.264-.977 1.639-.381.37-.821.549-1.321.646.02.103.022.2.048.284.037.12.107.253.252.211.057-.017.088-.031.164.036.076.068.037.33-.177.447-.108.06-.223.073-.396.076a3.672 3.672 0 0 1-.633-.029c-.188-.034-.3-.186-.51-.21-.322-.037-.568-.274-.827-.444-.108-.071-.144-.072-.206-.108.033.105.078.214.1.315.023.1.013.194.025.275.012.08.034.143.047.209.051.047.068.118.155.14.086.023.222-.012.311-.024s.149-.061.218-.048c.07.014.136.065.194.112.059.048.109.055.156.174.048.119.09.363.097.526a1.14 1.14 0 0 1-.058.439c-.048.13-.09.187-.218.315a3.409 3.409 0 0 1-.545.447c.038.058.056.11.115.173.06.063.185.134.24.2.056.067.084.114.085.189a.404.404 0 0 1-.062.252c-.148.202-.322.238-.534.333.035.227.065.39.013.616-.021.093-.068.302-.18.356-.111.054-.327.028-.463.05-.137.022-.213.043-.32.065-.064.095-.16.2-.194.285-.033.086-.023.116.005.204.028.087.122.214.149.316a.65.65 0 0 1 .007.315.555.555 0 0 1-.153.268c-.086.09-.255.162-.338.236-.084.074-.168.083-.145.205.031.167.272.439.445.504a.519.519 0 0 0 .37-.028c-.008.143-.13.24-.209.335a1.25 1.25 0 0 0 .568-.342c-.045.138-.199.36-.429.555-.23.194-.228.154-.343.232.209.043.403.031.565.002-.09.05-.234.12-.427.14-.192.02-.31.006-.484-.037s-.332-.204-.542-.314c.02.08.035.175.123.256.089.082.222.124.364.195-.18-.021-.37-.028-.549-.068a1.263 1.263 0 0 1-.316-.11c-.096-.048-.17-.119-.256-.179.041.08.053.174.123.24.07.065.182.09.274.134-.096-.002-.187.02-.286-.006a.798.798 0 0 1-.295-.143 2.153 2.153 0 0 1-.296-.27c-.088-.096-.196-.223-.23-.312-.032-.09.02-.153.03-.229-.06.04-.135.063-.181.122-.047.059-.088.113-.067.215.02.103.113.228.179.343-.196-.164-.306-.227-.352-.424-.044-.185.069-.352.155-.492.042-.07.106-.134.146-.2-.088-.09-.19-.165-.266-.266-.075-.1-.107-.237-.185-.334-.077-.096-.182-.157-.272-.236.08.175.21.39.24.525.028.135-.033.218-.08.291-.047.073-.123.09-.195.134-.072.045-.184.01-.227.076-.043.067-.055.167-.014.233l.169.271a.808.808 0 0 1-.217-.19c-.049-.066-.122-.127-.133-.216-.01-.09-.015-.167.042-.246.057-.08.211-.106.28-.167.07-.06.11-.1.105-.18-.004-.078-.08-.135-.144-.184-.198-.152-.452-.292-.62-.474a.634.634 0 0 1-.16-.258c-.02-.071 0-.127.048-.214.047-.088.209-.205.229-.3.02-.095-.062-.115-.136-.149-.074-.034-.214.017-.283-.041-.068-.058.02-.181-.057-.248-.077-.068-.253-.03-.345-.102A.489.489 0 0 1 5.7 12a.577.577 0 0 1-.014-.296c.022-.076.086-.089.124-.128.039-.04.072-.072.02-.131-.05-.059-.219.003-.316-.072-.097-.076-.037-.256-.106-.332-.068-.077-.191-.047-.256-.071-.065-.024-.09.061-.13-.074-.04-.136-.04-.54-.094-.692-.054-.15-.159-.01-.208-.16-.048-.15-.002-.39-.024-.617l-.1-.616c-.347.237-.576.312-.95.38-.03.93-.116 1.479.194 2.512s.937 1.642 1.783 2.516c-1.117-.853-1.65-1.546-1.983-2.435-.334-.888-.27-1.631-.236-2.487Zm5.931-.374c.086.004.19.026.25.066.061.04.125.073.18.13.137.142.239.313.284.51.03.125.034.285.044.433-.041-.137-.07-.278-.128-.4-.093-.192-.25-.38-.447-.466a.234.234 0 0 0-.143-.019c.016.028.043.05.044.09.001.04-.008.118-.074.151-.107.053-.226.016-.309-.059a.282.282 0 0 1-.068-.31c.052-.13.25-.131.367-.126Zm-1.076-.185c.01-.224.09-.412.286-.522.102-.057.258-.13.402-.147.138-.017.474-.005.676.09.156.072.261.184.398.267.136.082.233.137.363.23.2.14.316.297.454.39.066.045.16.038.248.066-.069.02-.158.044-.232.02a1.043 1.043 0 0 1-.293-.178 1.987 1.987 0 0 0-.33-.245c-.082-.048-.218-.106-.309-.166-.09-.06-.247-.193-.334-.237a1.062 1.062 0 0 0-.433-.085c-.17.005-.416.033-.547.155-.13.12-.18.227-.15.384.048-.058.081-.13.13-.173.102-.09.22-.093.346-.077.143.02.215.103.262.241-.032-.023-.09-.075-.136-.092a.322.322 0 0 0-.291.03c-.12.065-.087.161-.104.269-.008.05-.026.09-.04.134a.258.258 0 0 1-.12-.065c.001.05-.006.094.004.15.01.057.037.124.056.186-.083-.085-.168-.164-.222-.273a.733.733 0 0 1-.084-.352ZM8.4 7.11c.062-.092.08-.235.117-.35-.015.146.014.307-.056.413-.07.107-.193.088-.295.119.08-.062.173-.089.234-.182ZM6.934 9.283c.079-.065.291-.013.45-.001l-.342.09c-.01.039-.006.084-.032.118-.026.034-.076.046-.114.07.004-.105-.04-.212.038-.277Zm1.12-4.512c.094.052.215.12.298.123.084.002.106-.056.155-.09.078.258.167.541.299.775.055.098.09.053.132.151.042.098.06.299.1.424.04.126.092.219.138.328-.116-.169-.267-.384-.332-.524s-.023-.152-.076-.286c-.053-.134-.159-.342-.238-.513-.057.008-.128.019-.171.005-.043-.014-.035-.06-.074-.09-.039-.031-.105-.02-.16-.068-.054-.048-.067-.148-.072-.235Zm-.511 1.271c.09-.008.2.017.284.012.083-.005.143-.027.214-.04-.013-.129 0-.365-.117-.45-.075-.056-.383-.014-.465.004-.185.04-.401.153-.58.224.171-.122.32-.236.526-.299.123-.038.412-.087.54-.052.058.016.07.04.106.091.121.173.12.323.152.525.031.049.064.082.09.133.025.05.039.13.046.196-.032-.047-.012-.106-.1-.141-.089-.035-.224-.003-.343.01.087.064.13.125.133.26.004.158-.127.272-.264.283-.19.015-.289-.027-.366-.193-.034-.073-.01-.16-.012-.232-.229.017-.225.01-.392.151.09.136.148.214.298.295.084.046.18.09.284.109.104.018.276.035.385.018a.416.416 0 0 0 .254-.126c.08-.077.088-.186.12-.273a.805.805 0 0 1-.047.25c-.092.185-.253.24-.444.24-.183 0-.41-.043-.58-.115-.137-.057-.363-.22-.417-.363-.036-.097-.007-.216-.011-.323.189-.129.235-.097.459-.135.093-.015.158-.05.247-.059Zm-1.1-.867c.005-.077.013-.076.02-.113-.172-.047-.241.067-.342.278-.038.08 0 .127-.04.179-.041.052-.106.044-.172.094-.066.05-.131.146-.192.198-.126.106-.297.171-.443.243.1-.076.294-.19.356-.299.033-.058.029-.167.08-.219.052-.052.07-.088.137-.101.067-.013.04-.092.061-.155.022-.063.065-.107.11-.17.046-.063.104-.157.194-.191.09-.034.23.003.3-.017.067-.02.028-.07.078-.1.05-.031.146-.018.212-.05.118-.058.174-.154.245-.257.01.222.007.381-.07.59-.089.235-.178.373-.428.517-.086.05-.171.067-.242.093.041-.058.1-.083.124-.173.024-.09.006-.27.012-.347Zm4.03 1.08c-.118.008-.146-.007-.241.06l.154.246c-.004-.161.011-.194.088-.305Zm-.31-.117c.164-.071.307-.129.486-.14.072-.005.183.006.256.01.061-.093.14-.166.169-.272.019-.07.01-.395-.024-.48-.099-.245-.195-.256-.33-.397-.098-.102-.102-.257-.131-.432-.011-.064-.042-.145-.056-.21a2.59 2.59 0 0 0-.571-.03c.098-.097.194-.186.222-.33a.66.66 0 0 0-.075-.454c-.081-.13-.21-.243-.329-.349-.118-.106-.288-.193-.4-.28.146-.053.295-.132.438-.16.373-.074.694.039 1.053.26.21.13.382.252.6.485.22.234.49.662.701.915.212.254.383.455.567.606.185.152.352.195.527.292l.274.297.222-.28.357.04.074-.407.327-.092-.053-.55.235-.17-.177-.343.18-.374-.235-.428.09-.412-.27-.236-.036-.438-.378-.147-.152-.38-.426-.006-.208-.282-.287.02-.32-.035-.18-.136-.262.177-.317-.168-.63.244.41-.365.426-.07.327-.084.44.148.388-.1.373.225.396-.023.194.356.394.046.213.396.248.138.066.506.22.214-.097.443.26.336-.243.36.26.224-.333.301.338.358-.408.134.266.385-.333.058.218.423-.375-.005.189.317-.412-.051.099.455-.311-.279-.107.552-.214-.396-.116.494-.265-.364.007.518-.293-.466c.062.265.05.554.22.804.527-.073.872-.209 1.277-.606.368-.36.808-1.114.927-1.592.136-.545.14-1.548.006-2.103-.129-.535-.296-.79-.596-1.226-.286-.31-.567-.638-.93-.859-.533-.324-1.216-.412-1.824-.403-.336.005-.562.07-.763.145-.351.13-.633.415-.99.556-.117.045-.21.047-.302-.003.09.183.188.266.412.332.162.049.55.018.816-.007.286-.027.435-.114.824-.108.38.005.681.152.846.248.34.199.584.419.796.767.116.191.197.407.255.627.057.22.082.467.086.683.004.215-.013.408-.064.602-.121.454-.388.916-.936.844-.335-.043-.84-.685-1.01-.92-.342-.476-.693-1.002-1.123-1.398a1.714 1.714 0 0 0-.972-.44c-.66-.062-.856.066-1.353.484.101.033.2.051.304.099.23.105.44.242.623.417.193.184.279.3.286.563.004.174-.137.314-.266.44-.079.077-.183.148-.247.208-.085.08-.19.166-.083.293.04.047.11.083.168.128.093.07.05.332-.072.401a.4.4 0 0 1-.474-.04c.163-.024.267-.047.263-.183-.003-.079-.101-.145-.198-.19-.233-.108-.41-.092-.641-.262-.234-.172-.24-.266-.303-.536-.113.012-.217.014-.368.065-.151.051-.318.173-.455.203-.346.076-.415.053-.604.003-.332-.088-.766.063-1.196.203-.072.024-.361.001-.556.07a3.65 3.65 0 0 0-.968.579c-.37.317-.855 1.268-1.13 2.358-.028.332.064.555-.14.717-.205.162-.2.577-.27.693-.069.117-.149.065-.298.229-.15.163-.226.136-.222.445.129-.087.316-.187.481-.193.146-.006.148.19.523-.187.2-.203.585-.209.852-.298.268-.09.75-.273 1.231-.823.483-.55.714-1.129.807-1.966.015.149.04.316-.021.726-.063.409-.197.869.086 1.42l.176.342c-.105-.146-.31-.384-.372-.554l-.142-.391c-.318.51-.391.6-.834.966-.017.227-.022.463.05.68.074.217-.042.467.013.61.055.143.183.061.225.206.042.144-.022.43.043.571.064.141.223.056.3.101.077.046.102.108.143.168.042.06-.016.201.068.247.084.046.214.007.301.051s.1.15.08.245c-.021.096-.114.14-.155.236a.253.253 0 0 0 .013.252c.049.09.157.138.266.183.108.045.26.02.372.081a.883.883 0 0 1 .271.275c.06.09.076.153.073.248a.705.705 0 0 1-.09.293c-.05.091-.158.202.012.376s.163.1.26.212c-.01-.195-.09-.354-.031-.501.058-.147.231-.172.323-.239.091-.066.144-.156.216-.235-.001.101.01.21-.002.286-.023.154-.067.291.158.316.102.011.199-.056.306-.096-.056.102-.154.184-.169.307a.543.543 0 0 0 .087.379c.083.121.226.211.332.283.105.071.161.077.242.115.004.12-.02.248-.006.362a.667.667 0 0 0 .113.307c.064.094.168.148.265.217-.053-.126-.162-.246-.16-.38.001-.132.04-.227.168-.345.127-.118.425-.22.565-.335a.705.705 0 0 0 .236-.296c.05-.112.037-.291.046-.392.046.14.053.184.068.331.015.147-.084.353-.126.462a.7.7 0 0 0 .34-.356c.037.022.018.084.032.203.062-.063.132-.111.195-.17.062-.06.13-.112.161-.195a.451.451 0 0 0-.005-.266c-.023-.097-.128-.208-.185-.313-.056-.105.01-.208.007-.335-.114-.02-.21-.079-.34-.06-.131.02-.28.169-.414.17-.133.002-.208-.125-.317-.16-.11-.035-.22-.031-.33-.047.14-.136.68-.2 1.049-.262.325-.054.648-.086.978-.09.147-.002.336.047.438.017.102-.03.08-.1.11-.178.086-.217.044-.41-.002-.627-.296-.036-.604-.079-.902-.056-.292.023-.637.165-.938.174-.26.008-.648-.051-.872-.19-.274-.17-.487-.537-.562-.655-.123-.191-.277-.567-.371-.738-.094-.172-.115-.22-.194-.292-.078-.072-.185-.077-.278-.116.107.011.224-.023.321.034.146.085.31.439.4.593.096-.329.074-.458.352-.644-.224.257-.23.451-.284.753.186.312.446.81.785.948.123.05.333.081.466.098.412.052.81-.082 1.215-.184.296-.074.597-.044.957-.023.122.008.41-.067.47-.193a.227.227 0 0 0-.016-.223c-.047-.072-.17-.107-.236-.172-.067-.066-.105-.143-.157-.215a4.195 4.195 0 0 1-.705.08c.146-.061.287-.096.44-.157.151-.06.325-.16.448-.243.123-.083.201-.131.29-.228.09-.096.203-.195.269-.313s.076-.25.08-.396c.003-.146-.003-.35-.058-.468-.056-.117-.162-.153-.247-.18-.086-.029-.144.042-.233.051-.089.01-.172.067-.3.005a1.128 1.128 0 0 1-.41-.373c-.13-.186-.224-.49-.356-.725-.228-.403-.512-.78-.784-1.154-.023-.093-.057-.22-.068-.345-.02-.218-.023-.445.043-.657.051-.163.125-.335.292-.402a.316.316 0 0 1 .212-.014c.06.022.118.091.095.17-.026.088-.086.09-.126.135a.475.475 0 0 0-.122.223c.074-.001.174-.007.235.01.08.02.153.074.194.189-.095-.086-.142-.125-.26-.128-.054-.002-.12.018-.18.027-.023.075-.036.166-.067.223-.032.058-.094.044-.117.111a.66.66 0 0 0-.013.264Zm.827-.1c.036.014.05.017.096.053s.11.071.146.157a.607.607 0 0 1 .027.27c-.032-.01-.076-.003-.11-.032-.032-.029-.052-.094-.094-.122-.043-.028-.078-.022-.125-.028.024.07.036.14.025.203-.025.139-.104.209-.233.225-.057.007-.146-.012-.196-.02.023.051.062.097.085.148.109-.016.19-.013.248-.041.06-.028.122-.091.197-.118.076-.026.143-.026.225-.039-.065.057-.107.114-.172.171l.143.423c.1.065.195.099.322.178.127.08.28.222.446.3.165.077.264.12.437.152.173.034.31.177.48.2.17.023.489.028.62.015.149-.015.342-.094.36-.26-.125.031-.316.003-.412-.237-.043-.106-.022-.302-.087-.428-.066-.126-.157-.166-.266-.321-.109-.155-.287-.4-.387-.608-.1-.207-.124-.443-.208-.629-.085-.186-.213-.336-.312-.48-.215-.313-.39-.528-.745-.686-.171-.076-.366-.096-.55-.144-.074.034-.176.071-.194.16a.366.366 0 0 0 .08.287c.106.111.262.231.324.409.04.113.051.494.017.598-.036.107-.118.172-.187.244Zm.034.902c-.033.029-.058.059-.111.083-.053.024-.126.03-.196.048.099.157.202.316.297.48.095.166.177.346.267.519-.004-.099.002-.205-.012-.297-.014-.093-.056-.174-.096-.312-.04-.14-.091-.328-.149-.521ZM8.365 3.49c-.014.154.012.395.043.546.038.181.074.275.218.384.263.2.432.166.634.282.097.055.22.147.255.245.035.097-.024.203-.097.245.128.02.271-.128.212-.279-.03-.074-.17-.107-.213-.182a.29.29 0 0 1-.023-.229c.037-.137.303-.262.397-.37.145-.167.2-.307.119-.522-.116-.302-.56-.545-.827-.663-.122-.055-.19-.059-.286-.088.195.117.4.21.5.47.081.217.01.299.013.488.001.088.114.132.165.187.044.048.04.084.005.15a.174.174 0 0 0-.074-.137c-.075-.054-.155-.042-.195-.153-.06-.168.06-.327-.075-.515-.1-.142-.234-.3-.415-.304a.708.708 0 0 0-.24.039l-.122-.15-.003-.001c-.247-.23-.417-.42-.764-.579-.347-.158-.518-.182-.916-.173-.397.01-.792.043-1.253.449-.46.405-1.649 1.957-1.937 2.153-.288.197-.351.263-.711.263s-.922-.519-.944-1.168c-.022-.648-.03-.879.412-1.66.442-.782 1.243-1.022 1.837-1.104.595-.08.952.133 1.392.134.44.001.874-.076 1.002-.433-.062.038-.146.081-.383.068C5.855.871 5.527.592 5.16.405 4.79.218 4.38.195 3.854.185 3.328.176 2.67.218 2.02.576 1.371.933.927 1.313.55 2.013.173 2.714.116 3.286.177 4.135c.06.849.317 1.48.811 2.1.494.622.988.926 1.879 1.039l.187-.844-.335.49.009-.545-.303.383-.133-.519-.245.416-.122-.58-.355.294.112-.479-.47.053.216-.333L1 5.616l.249-.444-.38-.062.303-.404-.466-.14.386-.377-.38-.317.297-.236-.279-.378.297-.352-.11-.466.252-.224.075-.533.283-.145.243-.415.45-.049.223-.373.452.023.427-.237.443.106.503-.156.373.09.487.072.47.383-.721-.256-.363.177-.3-.186L4.01.86l-.365.037-.328-.022-.238.297-.486.005-.174.4-.432.155-.04.46-.31.248.102.433-.267.45.205.393-.202.36.269.178-.061.579.374.096.084.43.408-.044.253.294.313-.312c.57-.29.806-.452 1.25-.943.507-.558.797-1.075 1.471-1.457.484-.274.878-.373 1.422-.277.51.09.68.402 1.056.73.04-.073.048-.093.114-.147-.02.096-.054.195-.062.287Z"></path></g><defs><clipPath id="brand-gnu_svg__a"><rect fill="currentColor"></rect></clipPath></defs></svg></svg>